name analog
datacolumns 19
datarows 23
range 0.349 0.36
endheader
time	ground_force_vx	ground_force_vy	ground_force_vz	ground_force_px	ground_force_py	ground_force_pz	l_ground_force_vx	l_ground_force_vy	l_ground_force_vz	l_ground_force_px	l_ground_force_py	l_ground_force_pz	ground_torque_x	ground_torque_y	ground_torque_z	l_ground_torque_x	l_ground_torque_y	l_ground_torque_z
0.349	-0.0	-0.0	-0.0	3.5229735374450684	28.610858917236328	-325.4213256835937	-12.186699867248535	-35.84739685058594	-361.0449523925781	-0.0	-0.0	-0.0	-0.0	-0.0	-0.0	92092.5234375	10183.3837890625	-10561.5322265625
0.3495	-0.0	-0.0	-0.0	3.406859397888184	28.023088455200195	-321.6419677734375	-11.970097541809082	-35.94109344482422	-357.8573608398437	-0.0	-0.0	-0.0	-0.0	-0.0	-0.0	91460.3515625	10212.8134765625	-10507.5185546875
0.35	-0.0	-0.0	-0.0	3.5751423835754395	27.273902893066406	-319.3403625488281	-12.358348846435549	-35.45978546142578	-354.870361328125	-0.0	-0.0	-0.0	-0.0	-0.0	-0.0	90751.1875	10154.5439453125	-10637.5224609375
0.3505	-0.0	-0.0	-0.0	4.020791530609131	26.771800994873047	-317.2998352050781	-12.48072910308838	-35.41699981689453	-351.5365600585937	-0.0	-0.0	-0.0	-0.0	-0.0	-0.0	89788.0859375	10255.248046875	-10493.44921875
0.351	-0.0	-0.0	-0.0	4.49710750579834	26.550600051879883	-315.2448425292969	-12.098546981811523	-34.64939880371094	-348.802490234375	-0.0	-0.0	-0.0	-0.0	-0.0	-0.0	89225.0703125	10337.9970703125	-10406.826171875
0.3515	-0.0	-0.0	-0.0	4.969539642333984	26.23056411743164	-313.5198669433594	-11.641803741455078	-34.207725524902344	-344.8279724121094	-0.0	-0.0	-0.0	-0.0	-0.0	-0.0	88355.1796875	10388.9560546875	-10255.5166015625
0.352	-0.0	-0.0	-0.0	6.2447357177734375	26.12583351135254	-312.7100524902344	-11.204852104187012	-33.75925827026367	-344.02178955078125	-0.0	-0.0	-0.0	-0.0	-0.0	-0.0	87811.84375	10381.80078125	-9855.87890625
0.3525	-0.0	-0.0	-0.0	6.575463771820068	25.743453979492188	-313.167236328125	-10.543492317199709	-32.88979721069336	-342.27569580078125	-0.0	-0.0	-0.0	-0.0	-0.0	-0.0	87381.7734375	10574.4970703125	-9661.3896484375
0.353	-0.0	-0.0	-0.0	7.861563682556152	25.944000244140625	-313.2111511230469	-9.280240058898926	-31.822847366333008	-341.4987487792969	-0.0	-0.0	-0.0	-0.0	-0.0	-0.0	87139.0859375	10527.771484375	-9133.04296875
0.3535	-0.0	-0.0	-0.0	8.995552062988281	25.755250930786133	-316.7441711425781	-7.663672924041748	-30.95908737182617	-341.12115478515625	-0.0	-0.0	-0.0	-0.0	-0.0	-0.0	87030.46875	10890.1162109375	-8730.4765625
0.354	-0.0	-0.0	-0.0	10.51537036895752	25.491294860839844	-319.1148986816406	-6.209754943847656	-30.36338996887207	-340.6355285644531	-0.0	-0.0	-0.0	-0.0	-0.0	-0.0	86977.1328125	11041.251953125	-8149.10888671875
0.3545	-0.0	-0.0	-0.0	12.184343338012695	25.772890090942383	-320.6311340332031	-5.276600360870361	-29.314977645874023	-339.3444519042969	-0.0	-0.0	-0.0	-0.0	-0.0	-0.0	86734.5	11527.53515625	-7688.93115234375
0.355	-0.0	-0.0	-0.0	13.916839599609377	26.2419548034668	-325.8440856933594	-4.204368114471436	-28.99626922607422	-339.7245483398437	-0.0	-0.0	-0.0	-0.0	-0.0	-0.0	86941.1015625	12110.5224609375	-7524.34375
0.3555	-0.0	-0.0	-0.0	15.431836128234863	25.4278564453125	-330.82781982421875	-3.628887176513672	-27.98153686523437	-339.6189880371094	-0.0	-0.0	-0.0	-0.0	-0.0	-0.0	86878.7578125	12480.5615234375	-7360.162109375
0.356	-0.0	-0.0	-0.0	16.52960205078125	25.23731231689453	-335.6756591796875	-1.9600616693496704	-27.79468536376953	-341.3649597167969	-0.0	-0.0	-0.0	-0.0	-0.0	-0.0	87456.328125	13398.5576171875	-6834.0
0.3565	-0.0	-0.0	-0.0	17.880151748657227	24.968969345092773	-341.4263000488281	-0.9137932658195496	-27.14132499694824	-344.78582763671875	-0.0	-0.0	-0.0	-0.0	-0.0	-0.0	87812.5234375	13974.7333984375	-6578.00830078125
0.357	-0.0	-0.0	-0.0	19.065528869628903	24.94365501403809	-348.68963623046875	-0.5943508744239807	-27.353214263916016	-346.1488037109375	-0.0	-0.0	-0.0	-0.0	-0.0	-0.0	88353.390625	14522.4814453125	-6269.43798828125
0.3575	-0.0	-0.0	-0.0	19.906503677368164	25.18561172485352	-355.6011962890625	0.3198819160461426	-27.40615463256836	-350.8973999023437	-0.0	-0.0	-0.0	-0.0	-0.0	-0.0	89547.578125	15103.3583984375	-6070.10693359375
0.358	-0.0	-0.0	-0.0	21.053680419921875	26.2174072265625	-363.8726806640625	0.87784343957901	-26.928890228271484	-359.0685729980469	-0.0	-0.0	-0.0	-0.0	-0.0	-0.0	91501.1484375	15863.611328125	-5790.703125
0.3585	-0.0	-0.0	-0.0	20.847566604614254	26.81501007080078	-370.2806091308594	2.474465847015381	-26.990732192993164	-367.1292114257813	-0.0	-0.0	-0.0	-0.0	-0.0	-0.0	93886.84375	16599.990234375	-5552.271484375
0.359	-0.0	-0.0	-0.0	20.913986206054688	27.80868530273437	-376.8963928222656	3.610794067382813	-26.69938087463379	-377.083740234375	-0.0	-0.0	-0.0	-0.0	-0.0	-0.0	96195.484375	17229.8984375	-5432.732421875
0.3595	-0.0	-0.0	-0.0	20.37886047363281	28.519519805908203	-385.1200256347656	4.231838226318359	-26.6829776763916	-385.424560546875	-0.0	-0.0	-0.0	-0.0	-0.0	-0.0	98239.75	18091.6640625	-5118.0712890625
0.36	-0.0	-0.0	-0.0	20.390230178833008	29.348997116088867	-390.4524230957031	5.729937076568604	-26.28375816345215	-391.95452880859375	-0.0	-0.0	-0.0	-0.0	-0.0	-0.0	100292.84375	18747.232421875	-4897.1669921875
